<mxfile host="65bd71144e">
    <diagram id="KBCqjGBsZEF4duHTGgWA" name="Page-1">
        <mxGraphModel dx="1386" dy="784" grid="1" gridSize="10" guides="1" tooltips="1" connect="1" arrows="1" fold="1" page="1" pageScale="1" pageWidth="827" pageHeight="1169" math="0" shadow="0">
            <root>
                <mxCell id="0"/>
                <mxCell id="1" parent="0"/>
                <mxCell id="6" value="0x404ee0(buf):&lt;br&gt;...&lt;br&gt;0x404fe0(rbp):&lt;br&gt;0x404fe8:" style="verticalAlign=top;align=left;spacingTop=8;spacingLeft=2;spacingRight=12;shape=cube;size=10;direction=south;fontStyle=4;html=1;comic=1;fillColor=#f8cecc;strokeColor=#b85450;" parent="1" vertex="1">
                    <mxGeometry x="110" y="160" width="190" height="80" as="geometry"/>
                </mxCell>
                <mxCell id="7" value="&lt;div&gt;loc_401304:&lt;/div&gt;&lt;div&gt;lea&amp;nbsp; &amp;nbsp; &amp;nbsp;rax, [rbp+buf]&lt;/div&gt;&lt;div&gt;mov&amp;nbsp; &amp;nbsp; &amp;nbsp;edx, 110h&amp;nbsp; &amp;nbsp; &amp;nbsp; &amp;nbsp;; nbytes&lt;/div&gt;&lt;div&gt;mov&amp;nbsp; &amp;nbsp; &amp;nbsp;rsi, rax&amp;nbsp; &amp;nbsp; &amp;nbsp; &amp;nbsp; ; buf&lt;/div&gt;&lt;div&gt;mov&amp;nbsp; &amp;nbsp; &amp;nbsp;edi, 0&amp;nbsp; &amp;nbsp; &amp;nbsp; &amp;nbsp; &amp;nbsp; ; fd&lt;/div&gt;&lt;div&gt;call&amp;nbsp; &amp;nbsp; _read&lt;/div&gt;&lt;div&gt;nop&lt;/div&gt;&lt;div&gt;leave&lt;/div&gt;&lt;div&gt;retn&lt;/div&gt;" style="verticalAlign=top;align=left;spacingTop=8;spacingLeft=2;spacingRight=12;shape=cube;size=10;direction=south;fontStyle=4;html=1;comic=1;fillColor=#f8cecc;strokeColor=#b85450;" parent="1" vertex="1">
                    <mxGeometry x="360" y="160" width="180" height="150" as="geometry"/>
                </mxCell>
                <mxCell id="9" value="rbpä¸Žbuf" style="text;align=center;fontStyle=1;verticalAlign=middle;spacingLeft=3;spacingRight=3;strokeColor=none;rotatable=0;points=[[0,0.5],[1,0.5]];portConstraint=eastwest;comic=1;" parent="1" vertex="1">
                    <mxGeometry x="160" y="120" width="80" height="26" as="geometry"/>
                </mxCell>
                <mxCell id="10" value="code" style="text;align=center;fontStyle=1;verticalAlign=middle;spacingLeft=3;spacingRight=3;strokeColor=none;rotatable=0;points=[[0,0.5],[1,0.5]];portConstraint=eastwest;comic=1;" parent="1" vertex="1">
                    <mxGeometry x="400" y="120" width="80" height="26" as="geometry"/>
                </mxCell>
            </root>
        </mxGraphModel>
    </diagram>
</mxfile>